<?xml version="1.0" standalone="no"?>
<!DOCTYPE svg PUBLIC "-//W3C//DTD SVG 20010904//EN"
 "http://www.w3.org/TR/2001/REC-SVG-20010904/DTD/svg10.dtd">
<svg version="1.0" xmlns="http://www.w3.org/2000/svg"
 width="4507.000000pt" height="757.000000pt" viewBox="0 0 4507.000000 757.000000"
 preserveAspectRatio="xMidYMid meet">

<g transform="translate(0.000000,757.000000) scale(0.100000,-0.100000)"
fill="#000000" stroke="none">
<path d="M9070 7028 c-1543 -298 -2807 -542 -2808 -544 -5 -4 1071 -5523 1080
-5537 4 -7 872 155 2815 527 1544 296 2810 540 2812 542 4 4 -1060 5469 -1077
5537 -2 9 -7 17 -11 16 -3 0 -1268 -244 -2811 -541z"/>
<path d="M3710 7170 c-1131 -106 -2380 -646 -3365 -1455 -208 -170 -345 -298
-340 -315 2 -8 237 -1221 521 -2695 284 -1474 520 -2684 524 -2688 4 -4 53 29
110 74 1077 852 2141 1397 3050 1563 239 44 399 58 640 59 338 0 566 -35 867
-135 406 -134 790 -398 1087 -748 23 -27 36 -37 33 -25 -3 11 -252 1282 -553
2825 l-547 2805 -51 75 c-90 132 -242 276 -392 372 -130 83 -345 171 -535 219
-223 56 -355 71 -669 74 -157 2 -328 -1 -380 -5z m453 -570 c447 -24 821 -139
1007 -309 l50 -46 424 -2115 c234 -1163 424 -2115 423 -2116 -1 -2 -29 16 -62
38 -214 143 -545 248 -879 279 -159 15 -503 7 -674 -15 -750 -98 -1561 -402
-2392 -899 -151 -90 -440 -278 -567 -368 -78 -56 -83 -57 -88 -36 -3 12 -183
960 -400 2106 -328 1733 -392 2086 -381 2095 7 6 74 59 147 117 956 758 2057
1216 3049 1268 80 5 150 9 155 9 6 1 90 -3 188 -8z"/>
<path d="M33410 6440 l0 -530 955 0 955 0 0 530 0 530 -955 0 -955 0 0 -530z"/>
<path d="M16730 6909 c-1201 -84 -1924 -474 -2155 -1163 -109 -324 -107 -753
4 -1086 147 -436 482 -736 1041 -928 171 -59 428 -125 705 -182 453 -93 597
-131 720 -190 136 -66 200 -137 211 -236 22 -186 -163 -312 -536 -365 -140
-20 -650 -18 -850 4 -478 53 -873 147 -1302 312 -17 7 -18 -30 -18 -678 l0
-685 73 -17 c515 -118 1051 -194 1582 -225 221 -13 723 -13 895 0 1043 78
1747 436 2035 1035 126 263 179 599 145 925 -56 539 -324 912 -831 1154 -262
125 -492 191 -1089 310 -421 85 -520 110 -635 166 -147 71 -195 133 -195 251
1 83 23 132 88 191 62 55 142 89 284 120 97 21 125 23 478 23 401 0 493 -7
813 -61 216 -37 593 -133 742 -190 13 -5 15 70 15 669 l0 675 -32 6 c-364 77
-850 141 -1258 166 -190 11 -760 11 -930 -1z"/>
<path d="M21315 5583 c-398 -19 -732 -73 -1130 -182 l-140 -38 -3 -552 c-1
-375 1 -551 8 -551 6 0 36 13 68 29 93 47 328 137 457 175 148 44 312 79 470
102 145 21 508 24 660 5 410 -52 618 -209 649 -493 l6 -57 -32 5 c-369 50
-873 63 -1167 30 -560 -62 -961 -221 -1222 -486 -164 -166 -261 -355 -321
-622 -20 -91 -23 -129 -22 -318 0 -203 2 -221 27 -314 102 -369 360 -624 771
-761 386 -129 868 -128 1228 1 258 93 498 273 644 484 l59 85 3 -288 2 -287
886 0 885 0 -4 1313 c-3 1300 -4 1313 -25 1426 -25 131 -86 320 -133 412 -270
537 -870 821 -1854 879 -152 9 -614 11 -770 3z m1042 -2423 c-8 -135 -28 -237
-64 -324 -108 -260 -316 -392 -585 -372 -182 14 -283 68 -340 183 -32 65 -33
72 -33 188 0 109 2 125 27 177 65 139 232 227 490 257 40 5 172 9 292 10 l219
1 -6 -120z"/>
<path d="M27576 5579 c-239 -35 -471 -160 -652 -352 -119 -126 -205 -253 -304
-451 l-90 -180 0 452 0 452 -890 0 -890 0 0 -1975 0 -1975 950 0 950 0 0 738
c0 476 4 769 11 827 53 429 341 772 741 883 51 14 102 17 273 16 182 -1 221
-4 289 -22 44 -12 83 -22 88 -22 4 0 8 355 8 790 l0 789 -37 10 c-108 29 -323
38 -447 20z"/>
<path d="M29960 5584 c-153 -8 -415 -36 -563 -60 -145 -23 -485 -102 -629
-145 l-68 -20 0 -551 c0 -519 1 -550 18 -545 9 3 74 30 144 61 514 225 1039
307 1546 240 375 -49 579 -204 611 -464 5 -41 9 -75 8 -76 -1 -1 -108 9 -237
22 -317 31 -546 39 -770 25 -525 -33 -922 -143 -1216 -337 -114 -76 -264 -225
-338 -336 -137 -207 -206 -461 -208 -757 0 -157 14 -263 49 -376 122 -388 445
-650 934 -759 167 -37 315 -49 518 -43 328 9 585 85 828 242 107 69 289 250
353 350 l45 69 5 -284 5 -285 885 0 885 0 0 1295 0 1295 -23 130 c-60 329
-178 562 -391 768 -301 291 -745 457 -1401 522 -158 16 -801 28 -990 19z
m1067 -2424 c-4 -66 -14 -153 -23 -193 -20 -94 -101 -259 -158 -323 -127 -143
-314 -205 -527 -175 -147 21 -236 77 -286 179 -26 54 -28 65 -28 187 0 117 2
134 24 175 39 74 71 110 134 151 130 84 306 116 646 118 l224 1 -6 -120z"/>
<path d="M42195 5579 c-361 -21 -635 -70 -1135 -203 l-45 -12 -3 -552 c-1
-376 1 -552 8 -552 6 0 36 13 68 29 241 121 624 236 922 275 246 32 566 29
771 -9 342 -63 513 -214 543 -477 l6 -58 -27 5 c-156 26 -507 49 -738 49 -637
0 -1113 -111 -1459 -341 -297 -198 -477 -490 -532 -865 -24 -169 -16 -419 20
-552 124 -472 545 -775 1176 -847 152 -17 456 -6 585 21 124 26 279 77 379
125 186 88 383 255 502 425 l59 85 3 -288 2 -287 886 0 885 0 -4 1313 c-3
1300 -4 1313 -25 1426 -40 207 -113 398 -208 541 -301 455 -871 695 -1781 750
-198 12 -639 11 -858 -1z m1132 -2427 c-13 -241 -75 -402 -206 -532 -123 -123
-248 -167 -432 -156 -189 12 -293 66 -351 183 -32 65 -33 72 -33 188 0 109 2
125 27 177 65 139 232 227 490 257 40 5 172 9 292 10 l219 1 -6 -128z"/>
<path d="M33410 3525 l0 -1975 953 2 952 3 0 1970 0 1970 -952 3 -953 2 0
-1975z"/>
<path d="M35674 5478 c3 -13 266 -900 584 -1973 l578 -1950 1221 -3 1221 -2
11 32 c22 70 1170 3865 1176 3891 l7 27 -931 0 c-512 0 -931 -2 -931 -5 0 -16
-491 -2569 -494 -2573 -3 -2 -8 6 -11 19 -4 20 -459 2404 -480 2522 l-7 37
-975 0 -975 0 6 -22z"/>
</g>
</svg>
